<?xml version="1.0" encoding="utf-8"?>
<!-- Generator: Adobe Illustrator 20.1.0, SVG Export Plug-In . SVG Version: 6.00 Build 0)  -->
<svg version="1.1" id="Layer_1" xmlns="http://www.w3.org/2000/svg" xmlns:xlink="http://www.w3.org/1999/xlink" x="0px" y="0px"
	 viewBox="0 0 489 312" style="enable-background:new 0 0 489 312;" xml:space="preserve">
<path d="M137.7,164.9v-0.2c2.2-0.9,2.7-1.9,2.7-5.3v-22.5h-0.7c-2.9,0-3.9,1.2-7.7,6.1h-0.2l0.5-7.7h24.1l0.5,7.7h-0.2
	c-3.8-5-4.9-6.1-7.8-6.1H148v22.5c0,3.4,0.4,4.4,2.7,5.3v0.2H137.7z"/>
<path d="M168.2,164.9v-0.2c2.2-0.9,2.5-1.9,2.5-5.4v-6.9l-4.1-9.4c-2.2-5.1-2.7-6.1-4.7-7.5v-0.2h12.8v0.2c-1.3,0.7-1.8,1.3-1.8,2.7
	c0,1,0.4,2.5,1.3,4.8l2.9,7.6l2.7-7.1c0.9-2.2,1.1-3.8,1.1-4.9c0-1.6-0.5-2.5-2.1-3.2v-0.2h8.4v0.2c-1.8,1-3,2.7-5.3,8.2l-3.6,8.8
	v6.9c0,3.5,0.3,4.5,2.4,5.4v0.2H168.2z"/>
<path d="M192.6,164.9v-0.2c2.2-0.9,2.3-1.9,2.3-5.4v-18.5c0-3.6-0.4-4.5-2.3-5.4v-0.2h13.3c7.3,0,10.5,2.9,10.5,8.3
	c0,5.5-3.6,8.8-10.8,8.8h-2.9v6.7c0,3.1,0.3,4.5,2.9,5.6v0.2H192.6z M204.1,150.8c3.6,0,4.5-3.3,4.5-7.3c0-3.9-0.9-6.7-4.2-6.7h-1.8
	v14H204.1z"/>
<path d="M239.1,164.9v-0.2c2.2-0.9,2.4-1.9,2.4-5.4v-8.6h-8.9v8.6c0,3.5,0.2,4.5,2.4,5.4v0.2h-12.5v-0.2c2.2-0.9,2.4-1.9,2.4-5.4
	v-18.5c0-3.4-0.2-4.5-2.4-5.4v-0.2H235v0.2c-2.2,0.9-2.4,1.9-2.4,5.4v7.9h8.9v-7.9c0-3.4-0.2-4.5-2.4-5.4v-0.2h12.5v0.2
	c-2.2,0.9-2.4,1.9-2.4,5.4v18.5c0,3.5,0.2,4.5,2.4,5.4v0.2H239.1z"/>
<path d="M258,150.4c0-9.7,6.6-15.7,14.4-15.7c7.8,0,14.4,5.4,14.4,15c0,9.6-6.4,15.8-14.4,15.8C264.3,165.5,258,160.1,258,150.4
	 M278.5,150.1c0-9.2-1.8-13.8-6.1-13.8c-4.2,0-6.1,4.6-6.1,13.8c0,9.2,1.9,13.8,6.1,13.8C276.6,163.9,278.5,159.2,278.5,150.1"/>
<path d="M293.7,150.4c0-9.7,6.6-15.7,14.4-15.7c7.8,0,14.4,5.4,14.4,15c0,9.6-6.4,15.8-14.4,15.8C300,165.5,293.7,160.1,293.7,150.4
	 M314.2,150.1c0-9.2-1.8-13.8-6.1-13.8s-6.1,4.6-6.1,13.8c0,9.2,1.9,13.8,6.1,13.8C312.3,163.9,314.2,159.2,314.2,150.1"/>
<path d="M351.2,164.9l-17.7-23.2v13c0,7.3,0.9,8.7,3.3,9.9v0.2h-8.8v-0.2c2.3-1.2,3-2.7,3-9.9v-13.8c0-2.8-0.7-4.2-3.1-5.5v-0.2h9.7
	l14.2,18.4v-8.4c0-7.2-0.9-8.6-3.2-9.8v-0.2h8.7v0.2c-2.3,1.2-3,2.5-3,9.8v19.7H351.2z"/>
</svg>
